<svg id="Layer_1" enable-background="new 0 0 256 256" height="512" viewBox="0 0 256 256" width="512" xmlns="http://www.w3.org/2000/svg"><g><g><g><g><g><g><g><path id="XMLID_294_" d="m194.86 155.361c-2.175-.197-4.361-.301-6.548-.301-7.82 0-15.663 1.261-23.206 3.806-2.996 1.006-5.911 2.198-8.734 3.586l-45.614 22.315-76.327-41.414c-2.302-1.319-4.801-1.943-7.276-1.943-5.067 0-9.995 2.638-12.702 7.346-4.026 6.999-1.048 14.407 5.402 19.967l75.46 69.132c.046.035.093.081.139.116 7.369 5.622 17.202 6.848 25.878 3.575l60.988-23.032c6.767-2.279 13.859-2.776 20.638-1.643 3.956.659 7.809 1.874 11.453 3.621v-60.56c-6.306-2.431-12.888-3.958-19.551-4.571z" fill="#ffbb98"/><path d="m243.331 150.349v75.906c0 2.895-2.341 5.237-5.237 5.237h-18.444c-2.896 0-5.237-2.341-5.237-5.237v-75.906c0-2.886 2.341-5.237 5.237-5.237h18.444c2.895 0 5.237 2.351 5.237 5.237z" fill="#4bdbc3"/><path d="m243.331 150.349v75.906c0 2.895-2.341 5.237-5.237 5.237h-4.109c-2.896 0-5.237-2.341-5.237-5.237v-75.906c0-2.886 2.341-5.237 5.237-5.237h4.109c2.895 0 5.237 2.351 5.237 5.237z" fill="#3bb2a0"/><path id="XMLID_293_" d="m194.86 155.361c-2.175-.197-4.361-.301-6.548-.301-7.82 0-15.663 1.261-23.206 3.806-2.996 1.006-5.911 2.198-8.734 3.586l-45.614 22.315-7.23 3.54c-4.731 2.383-7.462 7.172-7.462 12.124 0 2.059.463 4.153 1.458 6.108 3.378 6.698 11.534 9.393 18.232 6.015l56-27.393s16.225-7.281 36.13-5.884l6.524.524v-19.87c-6.305-2.43-12.887-3.957-19.55-4.57z" fill="#ffcaa6"/></g></g></g></g></g><g><circle cx="113.516" cy="78.894" fill="#ea2a6a" r="66.218"/><path d="m113.516 123.78c-24.749 0-44.885-20.136-44.885-44.886s20.136-44.886 44.885-44.886c24.75 0 44.887 20.136 44.887 44.886 0 24.751-20.137 44.886-44.887 44.886z" fill="#ffefee"/><path d="m139.678 67.375-14.327-2.082c-1.072-.156-1.998-.829-2.478-1.8l-6.407-12.982c-1.207-2.446-4.695-2.446-5.902 0l-6.407 12.982c-.479.971-1.406 1.644-2.478 1.8l-14.327 2.082c-2.699.392-3.777 3.709-1.824 5.612l10.367 10.106c.775.756 1.129 1.845.946 2.912l-2.447 14.269c-.461 2.688 2.36 4.738 4.774 3.469l12.814-6.737c.959-.504 2.104-.504 3.063 0l12.814 6.737c2.414 1.269 5.236-.781 4.775-3.469l-2.447-14.269c-.183-1.067.171-2.157.946-2.912l10.367-10.106c1.955-1.903.878-5.22-1.822-5.612z" fill="#f9d335"/></g></g><g fill="#5f266d"><path d="m176.5 201.573-1.038.422c-4.864 1.977-1.931 9.418 3.012 7.412l1.038-.422c2.047-.832 3.031-3.165 2.2-5.212-.833-2.047-3.167-3.029-5.212-2.2z"/><path d="m161.566 207.638-9.266 3.763c-4.854 1.971-1.94 9.421 3.01 7.412l9.266-3.763c2.047-.831 3.032-3.164 2.201-5.211s-3.165-3.03-5.211-2.201z"/><path d="m238.093 141.133h-18.442c-5.094 0-9.238 4.144-9.238 9.237v4.006c-18.452-5.56-38.483-4.014-55.789 4.499l-43.75 21.405-74.434-40.382c-8.905-5.1-20.313-2.014-25.432 6.883-4.67 8.123-2.221 17.914 6.238 24.97 2.931 2.693 75.427 69.131 75.796 69.409 8.338 6.36 19.728 7.907 29.713 4.133l60.917-22.998c8.764-2.939 18.164-2.63 26.74.821v3.146c0 5.094 4.145 9.237 9.238 9.237h18.442c5.094 0 9.237-4.144 9.237-9.237v-75.892c.001-5.093-4.142-9.237-9.236-9.237zm-27.681 73.474c-9.54-3.118-19.765-3.109-29.364.129-.045.016-.089.031-.134.048l-60.986 23.024c-7.4 2.794-15.77 1.685-21.904-2.912-3.388-3.091-74.806-68.524-75.422-69.091-.056-.051-.111-.101-.17-.148-4.273-3.539-7.696-9.31-4.489-14.889 2.922-5.08 9.436-6.842 14.602-3.885l69.509 37.711-.31.152c-4.197 2.114-7.316 5.743-8.783 10.217-4.827 14.731 10.616 28.229 24.567 21.193l57.083-27.923c1.984-.971 2.806-3.366 1.835-5.351-.97-1.984-3.366-2.806-5.351-1.835l-57.126 27.944c-7.667 3.863-16.027-3.541-13.406-11.538.799-2.438 2.496-4.413 4.739-5.543l52.845-25.854c16.22-7.979 35.114-9.127 52.266-3.29v51.841zm28.918 11.655c0 .683-.555 1.237-1.237 1.237h-18.442c-.683 0-1.238-.555-1.238-1.237v-75.892c0-.683.556-1.237 1.238-1.237h18.442c.683 0 1.237.555 1.237 1.237z"/><path d="m113.516 127.781c26.956 0 48.887-21.93 48.887-48.886s-21.931-48.887-48.887-48.887c-26.955 0-48.885 21.931-48.885 48.887s21.93 48.886 48.885 48.886zm0-89.773c22.545 0 40.887 18.342 40.887 40.887s-18.342 40.886-40.887 40.886c-22.544 0-40.885-18.341-40.885-40.886s18.341-40.887 40.885-40.887z"/><path d="m90.454 99.598c-1.021 5.954 5.231 10.495 10.578 7.686l12.484-6.563 12.484 6.562c5.344 2.813 11.599-1.731 10.578-7.685l-2.384-13.901 10.1-9.845c2.002-1.95 2.709-4.814 1.845-7.474-2.023-6.225-9.124-4.953-12.75-5.959l2.127-2.85c1.321-1.771.957-4.277-.813-5.599-1.771-1.319-4.275-.956-5.599.813l-3.652 4.894-5.398-10.936c-2.673-5.418-10.402-5.417-13.075-.001l-6.242 12.647-13.956 2.028c-5.979.867-8.367 8.222-4.042 12.436l10.1 9.845zm-1.101-28.471 12.905-1.876c2.373-.346 4.425-1.836 5.487-3.987l5.771-11.693c6.013 12.028 5.72 11.937 6.702 13.12l-9.031 12.102-1.783-2.33c-1.343-1.752-3.853-2.086-5.608-.745-1.754 1.343-2.088 3.854-.745 5.608l5 6.532c.758.989 1.932 1.568 3.177 1.568h.024c1.254-.008 2.432-.603 3.182-1.607l13.513-18.106 9.735 1.415-9.338 9.102c-1.718 1.675-2.502 4.086-2.097 6.452l2.204 12.853-11.542-6.068c-2.125-1.117-4.661-1.115-6.784 0l-11.542 6.068 2.204-12.854c.405-2.365-.379-4.776-2.097-6.451z"/><path d="m113.517 149.112c38.718 0 70.218-31.5 70.218-70.218s-31.5-70.218-70.218-70.218-70.218 31.5-70.218 70.218 31.5 70.218 70.218 70.218zm0-132.436c34.307 0 62.218 27.911 62.218 62.218s-27.911 62.218-62.218 62.218-62.218-27.911-62.218-62.218 27.911-62.218 62.218-62.218z"/></g></g></svg>