<svg id="Layer_1" height="512" viewBox="0 0 512 512" width="512" xmlns="http://www.w3.org/2000/svg" data-name="Layer 1"><path d="m483.92 430.73a37.869 37.869 0 0 1 -53.51 53.6l-80.26-80.41 53.51-53.6z" fill="#5a5a77"/><path d="m376.9 323.52-53.51 53.6 26.76 26.8 53.51-53.6z" fill="#6d6d93"/><path d="m325.68 69.62a180.988 180.988 0 0 1 -255.72 256.19c-70.61-70.75-70.61-185.44 0-256.19a180.6 180.6 0 0 1 255.72 0z" fill="#587fa7"/><path d="m304.84 90.5a151.487 151.487 0 1 1 -214.04 0 151.852 151.852 0 0 1 214.04 0z" fill="#56bfab"/><path d="m274.26 151.33c8.68 1.47 13.87 13.44 11.59 26.74s-11.17 22.89-19.85 21.42-13.87-13.44-11.59-26.74 11.17-22.89 19.85-21.42z" fill="#eb7288"/><path d="m225.18 100.22c10.82 0 19.59 13.41 19.59 29.96s-8.77 29.96-19.59 29.96-19.6-13.41-19.6-29.96 8.78-29.96 19.6-29.96z" fill="#eb7288"/><path d="m168.82 100.22c10.82 0 19.6 13.41 19.6 29.96s-8.78 29.96-19.6 29.96-19.59-13.41-19.59-29.96 8.77-29.96 19.59-29.96z" fill="#eb7288"/><path d="m139.59 172.75c2.28 13.3-2.91 25.27-11.59 26.74s-17.57-8.12-19.85-21.42 2.91-25.27 11.59-26.74 17.57 8.12 19.85 21.42z" fill="#eb7288"/><path d="m244.42 218.4c25.35 8.69 39.84 40.51 17.9 70.07a6.874 6.874 0 0 1 -1.45 1.45c-21.89 16.02-44.95 12.49-59.13-.49a7.054 7.054 0 0 0 -9.48 0c-14.18 12.98-37.24 16.51-59.13.49a6.874 6.874 0 0 1 -1.45-1.45c-21.94-29.56-7.45-61.38 17.9-70.07a7.165 7.165 0 0 0 4.89-6.8v-.13a42.531 42.531 0 0 1 85.06 0v.13a7.165 7.165 0 0 0 4.89 6.8z" fill="#eb7288"/><path d="m120.8 90.5a150.618 150.618 0 0 1 92.02-43.66 151.6 151.6 0 1 0 0 301.75 151.64 151.64 0 0 1 -92.02-258.09z" fill="#489b8b"/><g fill="#284268"><path d="m197.821 40.1a156.171 156.171 0 0 0 -111.262 46.166c-61.343 61.453-61.343 161.445 0 222.9a157.481 157.481 0 0 0 222.525-222.9 156.174 156.174 0 0 0 -111.263-46.166zm134.7 212.422a145.246 145.246 0 0 1 -237.47 48.169c-56.676-56.78-56.676-149.166 0-205.945a145.443 145.443 0 0 1 237.47 157.776z"/><path d="m381.147 319.277a6 6 0 0 0 -8.492 0l-22.508 22.549-16.063-16.092a187.172 187.172 0 0 0 -4.157-260.35 186.588 186.588 0 0 0 -264.212 0c-72.835 72.968-72.835 191.7 0 264.662a186.568 186.568 0 0 0 259.891 4.179l16.065 16.093-22.524 22.565a6 6 0 0 0 0 8.477l107.017 107.211a43.787 43.787 0 0 0 62 0 44 44 0 0 0 0-62.083zm-59.712 2.292a174.592 174.592 0 0 1 -247.228 0c-68.168-68.293-68.168-179.414 0-247.707a174.94 174.94 0 0 1 285.634 189.769 174.091 174.091 0 0 1 -38.406 57.938zm10.436 55.553 45.03-45.113 18.278 18.31-45.032 45.112zm147.8 102.971a31.788 31.788 0 0 1 -45.016 0l-76.031-76.169 45.03-45.112 76.017 76.154a31.987 31.987 0 0 1 .001 45.127z"/><path d="m115.447 116.559a5.98 5.98 0 0 0 4.13-1.648 115.366 115.366 0 0 1 10-8.466 6 6 0 1 0 -7.217-9.587 127.27 127.27 0 0 0 -11.043 9.35 6 6 0 0 0 4.132 10.351z"/><path d="m102.7 124.467a6 6 0 0 0 -8.349 1.516 125.631 125.631 0 0 0 -20.826 91.295 6 6 0 0 0 11.858-1.85 113.672 113.672 0 0 1 18.834-82.613 6 6 0 0 0 -1.517-8.348z"/><path d="m246.6 212.722c-.514-.177-.6-.6-.6-1.123v-.126c0-26.607-22.239-48.254-49-48.254s-49 21.647-49 48.254v.145c0 .5-.084.927-.6 1.1a48.367 48.367 0 0 0 -30.437 31.382c-4.908 15.809-1.378 32.836 9.838 47.947a13 13 0 0 0 2.76 2.712c11.355 8.315 23.939 12.391 36.3 11.784a48.7 48.7 0 0 0 30.439-12.685 1.069 1.069 0 0 1 1.391 0 48.68 48.68 0 0 0 30.431 12.686q1.206.059 2.414.059c11.6 0 23.258-4.068 33.874-11.843a12.875 12.875 0 0 0 2.735-2.716c11.212-15.107 14.8-32.134 9.893-47.943a48.367 48.367 0 0 0 -30.438-31.379zm10.912 72.167a.9.9 0 0 1 -.19.189c-17.363 12.716-37.586 12.686-51.524-.071a13.118 13.118 0 0 0 -17.592 0c-13.939 12.757-34.164 12.784-51.525.071a.906.906 0 0 1 -.186-.185c-8.872-11.954-11.7-25.177-7.952-37.234a36.152 36.152 0 0 1 22.752-23.585 12.991 12.991 0 0 0 8.705-12.474v-.126c0-19.991 16.856-36.254 37-36.254s37 16.263 37 36.254v.107a13 13 0 0 0 8.707 12.494 36.322 36.322 0 0 1 22.869 23.585c3.744 12.056.803 25.279-8.066 37.229z"/><path d="m129 205.408a18.138 18.138 0 0 0 11.8-7.8c4.6-6.5 6.361-16.171 4.695-25.875-2.884-16.812-14.63-28.37-26.765-26.321a18.134 18.134 0 0 0 -11.8 7.8c-4.605 6.5-6.361 16.17-4.7 25.873 2.661 15.515 12.878 26.558 23.966 26.558a16.814 16.814 0 0 0 2.804-.235zm-14.938-28.35c-1.12-6.533-.1-13.011 2.66-16.907a6.38 6.38 0 0 1 4.015-2.9 4.345 4.345 0 0 1 .734-.061c4.561 0 10.507 6.713 12.2 16.578 1.121 6.532.1 13.01-2.658 16.906a6.383 6.383 0 0 1 -4.013 2.902c-4.623.794-11.149-6.114-12.935-16.518z"/><path d="m168.821 166.144c14.352 0 25.594-15.8 25.594-35.962s-11.242-35.962-25.594-35.962-25.594 15.8-25.594 35.962 11.242 35.962 25.594 35.962zm0-59.924c7.241 0 13.594 11.2 13.594 23.962s-6.353 23.962-13.594 23.962-13.594-11.2-13.594-23.962 6.352-23.962 13.594-23.962z"/><path d="m275.264 145.415c-12.135-2.05-23.881 9.508-26.764 26.32-1.666 9.7.09 19.377 4.695 25.875a18.138 18.138 0 0 0 11.8 7.8 16.814 16.814 0 0 0 2.8.236c11.088 0 21.305-11.044 23.965-26.557 1.666-9.7-.09-19.377-4.7-25.874a18.134 18.134 0 0 0 -11.796-7.8zm4.67 31.643c-1.785 10.405-8.31 17.317-12.933 16.518a6.383 6.383 0 0 1 -4.016-2.905c-2.76-3.9-3.779-10.374-2.659-16.906 1.693-9.866 7.638-16.578 12.2-16.578a4.345 4.345 0 0 1 .734.061 6.38 6.38 0 0 1 4.015 2.9c2.761 3.899 3.78 10.377 2.659 16.91z"/><path d="m225.179 166.144c14.352 0 25.594-15.8 25.594-35.962s-11.242-35.962-25.594-35.962-25.594 15.8-25.594 35.962 11.242 35.962 25.594 35.962zm0-59.924c7.242 0 13.594 11.2 13.594 23.962s-6.352 23.962-13.594 23.962-13.594-11.2-13.594-23.962 6.353-23.962 13.594-23.962z"/></g></svg>